{
    "asset" : {
        "generator" : "Khronos glTF Blender I/O v1.6.16",
        "version" : "2.0"
    },
    "scene" : 0,
    "scenes" : [
        {
            "name" : "Scene",
            "nodes" : [
                16
            ]
        }
    ],
    "nodes" : [
        {
            "mesh" : 0,
            "name" : "Object_16"
        },
        {
            "children" : [
                0
            ],
            "name" : "NODE_167_6",
            "scale" : [
                0.05000000074505806,
                0.05000000074505806,
                0.05000000074505806
            ],
            "translation" : [
                -0.0002036267687799409,
                9.994658470153809,
                1.3254972696304321
            ]
        },
        {
            "mesh" : 1,
            "name" : "Object_12"
        },
        {
            "children" : [
                2
            ],
            "name" : "NODE_284_4",
            "scale" : [
                0.05000000074505806,
                0.05000000074505806,
                0.05000000074505806
            ],
            "translation" : [
                -0.0011946522863581777,
                9.995652198791504,
                1.8096493482589722
            ]
        },
        {
            "mesh" : 2,
            "name" : "Object_14"
        },
        {
            "children" : [
                4
            ],
            "name" : "NODE_285_5",
            "scale" : [
                0.05000000074505806,
                0.05000000074505806,
                0.05000000074505806
            ],
            "translation" : [
                0.012003688141703606,
                10.0016508102417,
                1.7550437450408936
            ]
        },
        {
            "mesh" : 3,
            "name" : "Object_10"
        },
        {
            "children" : [
                6
            ],
            "name" : "NODE_320_3",
            "scale" : [
                0.05000000074505806,
                0.05000000074505806,
                0.05000000074505806
            ],
            "translation" : [
                -0.0018973893020302057,
                9.988323211669922,
                1.7995314598083496
            ]
        },
        {
            "mesh" : 4,
            "name" : "Object_8"
        },
        {
            "children" : [
                8
            ],
            "name" : "NODE_321_2",
            "scale" : [
                0.05000000074505806,
                0.05000000074505806,
                0.05000000074505806
            ],
            "translation" : [
                -0.0019989237189292908,
                9.99435806274414,
                1.8130394220352173
            ]
        },
        {
            "mesh" : 5,
            "name" : "Object_6"
        },
        {
            "children" : [
                10
            ],
            "name" : "NODE_326_1",
            "scale" : [
                0.05000000074505806,
                0.05000000074505806,
                0.05000000074505806
            ],
            "translation" : [
                0.00217774068005383,
                9.996821403503418,
                1.4865000247955322
            ]
        },
        {
            "mesh" : 6,
            "name" : "Object_4"
        },
        {
            "children" : [
                12
            ],
            "name" : "NODE_333_0",
            "scale" : [
                0.05000000074505806,
                0.05000000074505806,
                0.05000000074505806
            ],
            "translation" : [
                0.003976940177381039,
                9.994999885559082,
                0.6355000138282776
            ]
        },
        {
            "children" : [
                1,
                3,
                5,
                7,
                9,
                11,
                13
            ],
            "name" : "GLTF_SceneRootNode",
            "rotation" : [
                0.7071068286895752,
                0,
                0,
                0.7071068286895752
            ]
        },
        {
            "children" : [
                14
            ],
            "name" : "root"
        },
        {
            "children" : [
                15
            ],
            "name" : "Sketchfab_model",
            "rotation" : [
                -0.7071068286895752,
                0,
                0,
                0.7071068286895752
            ],
            "scale" : [
                0.14587187767028809,
                0.14587187767028809,
                0.14587187767028809
            ],
            "translation" : [
                -0.9194070100784302,
                -0.558625340461731,
                -0.04974471032619476
            ]
        }
    ],
    "materials" : [
        {
            "name" : "material_6",
            "pbrMetallicRoughness" : {
                "baseColorFactor" : [
                    0.764706015586853,
                    0.8941180109977722,
                    0.8470590114593506,
                    1
                ],
                "metallicFactor" : 0,
                "roughnessFactor" : 0
            }
        },
        {
            "name" : "material_4",
            "pbrMetallicRoughness" : {
                "baseColorFactor" : [
                    0.67843097448349,
                    0.36078399419784546,
                    0.3176470100879669,
                    1
                ],
                "metallicFactor" : 0,
                "roughnessFactor" : 0
            }
        },
        {
            "name" : "material_5",
            "pbrMetallicRoughness" : {
                "baseColorFactor" : [
                    0.67843097448349,
                    0.36078399419784546,
                    0.3176470100879669,
                    1
                ],
                "metallicFactor" : 0,
                "roughnessFactor" : 0
            }
        },
        {
            "name" : "material_3",
            "pbrMetallicRoughness" : {
                "baseColorFactor" : [
                    0.67843097448349,
                    0.36078399419784546,
                    0.3176470100879669,
                    1
                ],
                "metallicFactor" : 0,
                "roughnessFactor" : 0
            }
        },
        {
            "name" : "material_2",
            "pbrMetallicRoughness" : {
                "metallicFactor" : 0,
                "roughnessFactor" : 0
            }
        },
        {
            "name" : "material_1",
            "pbrMetallicRoughness" : {
                "baseColorFactor" : [
                    0.9568629860877991,
                    0.7960780262947083,
                    0.6980389952659607,
                    1
                ],
                "metallicFactor" : 0,
                "roughnessFactor" : 0
            }
        },
        {
            "name" : "material_0",
            "pbrMetallicRoughness" : {
                "baseColorFactor" : [
                    0,
                    0,
                    0,
                    1
                ],
                "metallicFactor" : 0,
                "roughnessFactor" : 0
            }
        }
    ],
    "meshes" : [
        {
            "name" : "Object_6",
            "primitives" : [
                {
                    "attributes" : {
                        "POSITION" : 0,
                        "NORMAL" : 1,
                        "TEXCOORD_0" : 2
                    },
                    "indices" : 3,
                    "material" : 0
                }
            ]
        },
        {
            "name" : "Object_4",
            "primitives" : [
                {
                    "attributes" : {
                        "POSITION" : 4,
                        "NORMAL" : 5
                    },
                    "indices" : 6,
                    "material" : 1
                }
            ]
        },
        {
            "name" : "Object_5",
            "primitives" : [
                {
                    "attributes" : {
                        "POSITION" : 7,
                        "NORMAL" : 8
                    },
                    "indices" : 9,
                    "material" : 2
                }
            ]
        },
        {
            "name" : "Object_3",
            "primitives" : [
                {
                    "attributes" : {
                        "POSITION" : 10,
                        "NORMAL" : 11
                    },
                    "indices" : 12,
                    "material" : 3
                }
            ]
        },
        {
            "name" : "Object_2",
            "primitives" : [
                {
                    "attributes" : {
                        "POSITION" : 13,
                        "NORMAL" : 14,
                        "TEXCOORD_0" : 15
                    },
                    "indices" : 16,
                    "material" : 4
                }
            ]
        },
        {
            "name" : "Object_1",
            "primitives" : [
                {
                    "attributes" : {
                        "POSITION" : 17,
                        "NORMAL" : 18,
                        "TEXCOORD_0" : 19
                    },
                    "indices" : 20,
                    "material" : 5
                }
            ]
        },
        {
            "name" : "Object_0",
            "primitives" : [
                {
                    "attributes" : {
                        "POSITION" : 21,
                        "NORMAL" : 22,
                        "TEXCOORD_0" : 23
                    },
                    "indices" : 24,
                    "material" : 6
                }
            ]
        }
    ],
    "accessors" : [
        {
            "bufferView" : 0,
            "componentType" : 5126,
            "count" : 576,
            "max" : [
                96.69999694824219,
                -122.0999984741211,
                1.0899444818496704
            ],
            "min" : [
                51.29999923706055,
                -148.10000610351562,
                -1.0899444818496704
            ],
            "type" : "VEC3"
        },
        {
            "bufferView" : 1,
            "componentType" : 5126,
            "count" : 576,
            "type" : "VEC3"
        },
        {
            "bufferView" : 2,
            "componentType" : 5126,
            "count" : 576,
            "type" : "VEC2"
        },
        {
            "bufferView" : 3,
            "componentType" : 5123,
            "count" : 1836,
            "type" : "SCALAR"
        },
        {
            "bufferView" : 4,
            "componentType" : 5126,
            "count" : 74,
            "max" : [
                132.3000030517578,
                -99,
                2.152986764907837
            ],
            "min" : [
                126.5,
                -104.9000015258789,
                -2.152986764907837
            ],
            "type" : "VEC3"
        },
        {
            "bufferView" : 5,
            "componentType" : 5126,
            "count" : 74,
            "type" : "VEC3"
        },
        {
            "bufferView" : 6,
            "componentType" : 5123,
            "count" : 432,
            "type" : "SCALAR"
        },
        {
            "bufferView" : 7,
            "componentType" : 5126,
            "count" : 72,
            "max" : [
                135.89999389648438,
                -108.4000015258789,
                1.0608752965927124
            ],
            "min" : [
                122.30000305175781,
                -114.5999984741211,
                -1.0608752965927124
            ],
            "type" : "VEC3"
        },
        {
            "bufferView" : 8,
            "componentType" : 5126,
            "count" : 72,
            "type" : "VEC3"
        },
        {
            "bufferView" : 9,
            "componentType" : 5123,
            "count" : 414,
            "type" : "SCALAR"
        },
        {
            "bufferView" : 10,
            "componentType" : 5126,
            "count" : 980,
            "max" : [
                170.6999969482422,
                -75.4000015258789,
                6.786373138427734
            ],
            "min" : [
                90.0999984741211,
                -98.0999984741211,
                -6.786373138427734
            ],
            "type" : "VEC3"
        },
        {
            "bufferView" : 11,
            "componentType" : 5126,
            "count" : 980,
            "type" : "VEC3"
        },
        {
            "bufferView" : 12,
            "componentType" : 5123,
            "count" : 5844,
            "type" : "SCALAR"
        },
        {
            "bufferView" : 13,
            "componentType" : 5126,
            "count" : 384,
            "max" : [
                174.5,
                -69.19999694824219,
                2.22078800201416
            ],
            "min" : [
                86,
                -103.80000305175781,
                -2.22078800201416
            ],
            "type" : "VEC3"
        },
        {
            "bufferView" : 14,
            "componentType" : 5126,
            "count" : 384,
            "type" : "VEC3"
        },
        {
            "bufferView" : 15,
            "componentType" : 5126,
            "count" : 384,
            "type" : "VEC2"
        },
        {
            "bufferView" : 16,
            "componentType" : 5123,
            "count" : 2280,
            "type" : "SCALAR"
        },
        {
            "bufferView" : 17,
            "componentType" : 5126,
            "count" : 328,
            "max" : [
                187.1999969482422,
                -58.900001525878906,
                4.309999942779541
            ],
            "min" : [
                71.0999984741211,
                -120.5,
                -4.309999942779541
            ],
            "type" : "VEC3"
        },
        {
            "bufferView" : 18,
            "componentType" : 5126,
            "count" : 328,
            "type" : "VEC3"
        },
        {
            "bufferView" : 19,
            "componentType" : 5126,
            "count" : 328,
            "type" : "VEC2"
        },
        {
            "bufferView" : 20,
            "componentType" : 5123,
            "count" : 1956,
            "type" : "SCALAR"
        },
        {
            "bufferView" : 21,
            "componentType" : 5126,
            "count" : 1776,
            "max" : [
                259.6000061035156,
                -0.10000000149011612,
                12.710000038146973
            ],
            "min" : [
                0,
                -199.89999389648438,
                -12.710000038146973
            ],
            "type" : "VEC3"
        },
        {
            "bufferView" : 22,
            "componentType" : 5126,
            "count" : 1776,
            "type" : "VEC3"
        },
        {
            "bufferView" : 23,
            "componentType" : 5126,
            "count" : 1776,
            "type" : "VEC2"
        },
        {
            "bufferView" : 24,
            "componentType" : 5123,
            "count" : 8724,
            "type" : "SCALAR"
        }
    ],
    "bufferViews" : [
        {
            "buffer" : 0,
            "byteLength" : 6912,
            "byteOffset" : 0
        },
        {
            "buffer" : 0,
            "byteLength" : 6912,
            "byteOffset" : 6912
        },
        {
            "buffer" : 0,
            "byteLength" : 4608,
            "byteOffset" : 13824
        },
        {
            "buffer" : 0,
            "byteLength" : 3672,
            "byteOffset" : 18432
        },
        {
            "buffer" : 0,
            "byteLength" : 888,
            "byteOffset" : 22104
        },
        {
            "buffer" : 0,
            "byteLength" : 888,
            "byteOffset" : 22992
        },
        {
            "buffer" : 0,
            "byteLength" : 864,
            "byteOffset" : 23880
        },
        {
            "buffer" : 0,
            "byteLength" : 864,
            "byteOffset" : 24744
        },
        {
            "buffer" : 0,
            "byteLength" : 864,
            "byteOffset" : 25608
        },
        {
            "buffer" : 0,
            "byteLength" : 828,
            "byteOffset" : 26472
        },
        {
            "buffer" : 0,
            "byteLength" : 11760,
            "byteOffset" : 27300
        },
        {
            "buffer" : 0,
            "byteLength" : 11760,
            "byteOffset" : 39060
        },
        {
            "buffer" : 0,
            "byteLength" : 11688,
            "byteOffset" : 50820
        },
        {
            "buffer" : 0,
            "byteLength" : 4608,
            "byteOffset" : 62508
        },
        {
            "buffer" : 0,
            "byteLength" : 4608,
            "byteOffset" : 67116
        },
        {
            "buffer" : 0,
            "byteLength" : 3072,
            "byteOffset" : 71724
        },
        {
            "buffer" : 0,
            "byteLength" : 4560,
            "byteOffset" : 74796
        },
        {
            "buffer" : 0,
            "byteLength" : 3936,
            "byteOffset" : 79356
        },
        {
            "buffer" : 0,
            "byteLength" : 3936,
            "byteOffset" : 83292
        },
        {
            "buffer" : 0,
            "byteLength" : 2624,
            "byteOffset" : 87228
        },
        {
            "buffer" : 0,
            "byteLength" : 3912,
            "byteOffset" : 89852
        },
        {
            "buffer" : 0,
            "byteLength" : 21312,
            "byteOffset" : 93764
        },
        {
            "buffer" : 0,
            "byteLength" : 21312,
            "byteOffset" : 115076
        },
        {
            "buffer" : 0,
            "byteLength" : 14208,
            "byteOffset" : 136388
        },
        {
            "buffer" : 0,
            "byteLength" : 17448,
            "byteOffset" : 150596
        }
    ],
    "buffers" : [
        {
            "byteLength" : 168044,
            "uri" : "scene.bin"
        }
    ]
}
